<svg xmlns="http://www.w3.org/2000/svg" width="131" height="26" fill="none"><path fill="#3563E9" d="M.304 25V1.16h4.16l8.928 12.128h-1.984L20.144 1.16h4.16V25H19.92V6.12l1.696.416L12.56 18.6h-.512L3.216 6.536l1.44-.416V25H.304Zm39.346.384c-1.749 0-3.38-.31-4.895-.928a12.178 12.178 0 0 1-3.969-2.592 12.07 12.07 0 0 1-2.655-3.904c-.62-1.515-.928-3.147-.928-4.896 0-1.77.309-3.403.928-4.896a11.66 11.66 0 0 1 2.623-3.904 11.762 11.762 0 0 1 3.968-2.56c1.515-.619 3.158-.928 4.928-.928 1.771 0 3.414.31 4.928.928a12.177 12.177 0 0 1 3.968 2.592 11.32 11.32 0 0 1 2.624 3.872c.64 1.493.96 3.125.96 4.896 0 1.75-.32 3.381-.96 4.896a12.07 12.07 0 0 1-2.656 3.904 12.178 12.178 0 0 1-3.968 2.592c-1.493.619-3.125.928-4.895.928Zm0-3.968c1.174 0 2.251-.203 3.233-.608a7.947 7.947 0 0 0 2.56-1.76 7.361 7.361 0 0 0 1.696-2.656c.405-1.024.607-2.133.607-3.328 0-1.195-.202-2.293-.608-3.296a7.36 7.36 0 0 0-1.695-2.656 7.33 7.33 0 0 0-2.56-1.76c-.982-.405-2.06-.608-3.233-.608-1.151 0-2.218.203-3.2.608a7.658 7.658 0 0 0-2.592 1.76 7.978 7.978 0 0 0-1.695 2.656c-.406 1.003-.608 2.101-.608 3.296 0 1.195.202 2.304.608 3.328a7.978 7.978 0 0 0 1.696 2.656 8.326 8.326 0 0 0 2.591 1.76c.982.405 2.048.608 3.2.608ZM55.04 25V1.16h8.864c1.622 0 3.05.299 4.288.896 1.259.576 2.24 1.43 2.944 2.56.704 1.11 1.056 2.464 1.056 4.064 0 1.643-.394 3.04-1.184 4.192-.768 1.152-1.813 2.005-3.136 2.56L73.344 25h-4.928L62.56 14.536l2.816 1.664h-5.984V25H55.04Zm4.352-12.64h4.576c.79 0 1.472-.15 2.048-.448A3.456 3.456 0 0 0 67.36 10.6c.32-.555.48-1.195.48-1.92 0-.747-.16-1.387-.48-1.92a3.24 3.24 0 0 0-1.344-1.28C65.44 5.16 64.758 5 63.968 5h-4.576v7.36ZM75.237 25V1.16h15.84V5H79.587v6.112h10.849v3.84H79.587v6.208h11.489V25h-15.84Zm18.07 0V1.16H96.7l13.12 17.664-1.76.352V1.16h4.352V25h-3.424L96.06 7.208l1.6-.352V25h-4.352Zm26.983 0V5h-6.176V1.16h16.64V5h-6.08v20h-4.384Z"/></svg>