<svg width="108" height="20" viewBox="0 0 108 20" fill="none" xmlns="http://www.w3.org/2000/svg">
<g clip-path="url(#clip0_1_1857)">
<path fill-rule="evenodd" clip-rule="evenodd" d="M9.16664 2.65838C9.22421 2.47584 9.33846 2.31641 9.49281 2.20324C9.64717 2.09007 9.83358 2.02905 10.025 2.02905C10.2164 2.02905 10.4028 2.09007 10.5571 2.20324C10.7115 2.31641 10.8257 2.47584 10.8833 2.65838L12.4333 7.42505H17.4333C17.6315 7.41755 17.8268 7.47516 17.9892 7.58908C18.1516 7.70299 18.2723 7.86695 18.3327 8.05589C18.3932 8.24484 18.3902 8.44838 18.324 8.63542C18.2579 8.82247 18.1324 8.98273 17.9666 9.09171L13.9083 12.0334L15.4583 16.8084C15.5196 16.9903 15.5212 17.187 15.4627 17.3698C15.4043 17.5526 15.2889 17.712 15.1335 17.8246C14.9781 17.9372 14.7907 17.9972 14.5988 17.9958C14.4068 17.9944 14.2204 17.9316 14.0666 17.8167L9.99998 14.8417L5.94164 17.7917C5.7879 17.9066 5.60145 17.9694 5.40951 17.9708C5.21758 17.9722 5.03022 17.9122 4.87479 17.7996C4.71936 17.687 4.604 17.5276 4.54557 17.3448C4.48713 17.162 4.48868 16.9653 4.54998 16.7834L6.09998 12.0084L2.04164 9.06671C1.87588 8.95773 1.75035 8.79747 1.68424 8.61042C1.61813 8.42338 1.61508 8.21984 1.67554 8.03089C1.736 7.84195 1.85666 7.67799 2.01907 7.56408C2.18149 7.45016 2.37673 7.39255 2.57498 7.40005H7.57498L9.16664 2.65838Z" fill="#FBAD39"/>
<path fill-rule="evenodd" clip-rule="evenodd" d="M31.1666 2.65838C31.2242 2.47584 31.3385 2.31641 31.4928 2.20324C31.6472 2.09007 31.8336 2.02905 32.025 2.02905C32.2164 2.02905 32.4028 2.09007 32.5571 2.20324C32.7115 2.31641 32.8257 2.47584 32.8833 2.65838L34.4333 7.42505H39.4333C39.6315 7.41755 39.8268 7.47516 39.9892 7.58908C40.1516 7.70299 40.2723 7.86695 40.3327 8.05589C40.3932 8.24484 40.3902 8.44838 40.324 8.63542C40.2579 8.82247 40.1324 8.98273 39.9666 9.09171L35.9083 12.0334L37.4583 16.8084C37.5196 16.9903 37.5212 17.187 37.4627 17.3698C37.4043 17.5526 37.2889 17.712 37.1335 17.8246C36.9781 17.9372 36.7907 17.9972 36.5988 17.9958C36.4068 17.9944 36.2204 17.9316 36.0666 17.8167L32 14.8417L27.9416 17.7917C27.7879 17.9066 27.6014 17.9694 27.4095 17.9708C27.2176 17.9722 27.0302 17.9122 26.8748 17.7996C26.7194 17.687 26.604 17.5276 26.5456 17.3448C26.4871 17.162 26.4887 16.9653 26.55 16.7834L28.1 12.0084L24.0416 9.06671C23.8759 8.95773 23.7504 8.79747 23.6842 8.61042C23.6181 8.42338 23.6151 8.21984 23.6755 8.03089C23.736 7.84195 23.8567 7.67799 24.0191 7.56408C24.1815 7.45016 24.3767 7.39255 24.575 7.40005H29.575L31.1666 2.65838Z" fill="#FBAD39"/>
<path fill-rule="evenodd" clip-rule="evenodd" d="M53.1666 2.65838C53.2242 2.47584 53.3385 2.31641 53.4928 2.20324C53.6472 2.09007 53.8336 2.02905 54.025 2.02905C54.2164 2.02905 54.4028 2.09007 54.5571 2.20324C54.7115 2.31641 54.8257 2.47584 54.8833 2.65838L56.4333 7.42505H61.4333C61.6315 7.41755 61.8268 7.47516 61.9892 7.58908C62.1516 7.70299 62.2723 7.86695 62.3327 8.05589C62.3932 8.24484 62.3902 8.44838 62.324 8.63542C62.2579 8.82247 62.1324 8.98273 61.9666 9.09171L57.9083 12.0334L59.4583 16.8084C59.5196 16.9903 59.5212 17.187 59.4627 17.3698C59.4043 17.5526 59.2889 17.712 59.1335 17.8246C58.9781 17.9372 58.7907 17.9972 58.5988 17.9958C58.4068 17.9944 58.2204 17.9316 58.0666 17.8167L54 14.8417L49.9416 17.7917C49.7879 17.9066 49.6014 17.9694 49.4095 17.9708C49.2176 17.9722 49.0302 17.9122 48.8748 17.7996C48.7194 17.687 48.604 17.5276 48.5456 17.3448C48.4871 17.162 48.4887 16.9653 48.55 16.7834L50.1 12.0084L46.0416 9.06671C45.8759 8.95773 45.7504 8.79747 45.6842 8.61042C45.6181 8.42338 45.6151 8.21984 45.6755 8.03089C45.736 7.84195 45.8567 7.67799 46.0191 7.56408C46.1815 7.45016 46.3767 7.39255 46.575 7.40005H51.575L53.1666 2.65838Z" fill="#FBAD39"/>
<path fill-rule="evenodd" clip-rule="evenodd" d="M75.1666 2.65838C75.2242 2.47584 75.3385 2.31641 75.4928 2.20324C75.6472 2.09007 75.8336 2.02905 76.025 2.02905C76.2164 2.02905 76.4028 2.09007 76.5571 2.20324C76.7115 2.31641 76.8257 2.47584 76.8833 2.65838L78.4333 7.42505H83.4333C83.6315 7.41755 83.8268 7.47516 83.9892 7.58908C84.1516 7.70299 84.2723 7.86695 84.3327 8.05589C84.3932 8.24484 84.3902 8.44838 84.324 8.63542C84.2579 8.82247 84.1324 8.98273 83.9666 9.09171L79.9083 12.0334L81.4583 16.8084C81.5196 16.9903 81.5212 17.187 81.4627 17.3698C81.4043 17.5526 81.2889 17.712 81.1335 17.8246C80.9781 17.9372 80.7907 17.9972 80.5988 17.9958C80.4068 17.9944 80.2204 17.9316 80.0666 17.8167L76 14.8417L71.9416 17.7917C71.7879 17.9066 71.6014 17.9694 71.4095 17.9708C71.2176 17.9722 71.0302 17.9122 70.8748 17.7996C70.7194 17.687 70.604 17.5276 70.5456 17.3448C70.4871 17.162 70.4887 16.9653 70.55 16.7834L72.1 12.0084L68.0416 9.06671C67.8759 8.95773 67.7504 8.79747 67.6842 8.61042C67.6181 8.42338 67.6151 8.21984 67.6755 8.03089C67.736 7.84195 67.8567 7.67799 68.0191 7.56408C68.1815 7.45016 68.3767 7.39255 68.575 7.40005H73.575L75.1666 2.65838Z" fill="#FBAD39"/>
<path fill-rule="evenodd" clip-rule="evenodd" d="M97.1666 2.65838C97.2242 2.47584 97.3385 2.31641 97.4928 2.20324C97.6472 2.09007 97.8336 2.02905 98.025 2.02905C98.2164 2.02905 98.4028 2.09007 98.5571 2.20324C98.7115 2.31641 98.8257 2.47584 98.8833 2.65838L100.433 7.42505H105.433C105.632 7.41755 105.827 7.47516 105.989 7.58908C106.152 7.70299 106.272 7.86695 106.333 8.05589C106.393 8.24484 106.39 8.44838 106.324 8.63542C106.258 8.82247 106.132 8.98273 105.967 9.09171L101.908 12.0334L103.458 16.8084C103.52 16.9903 103.521 17.187 103.463 17.3698C103.404 17.5526 103.289 17.712 103.133 17.8246C102.978 17.9372 102.791 17.9972 102.599 17.9958C102.407 17.9944 102.22 17.9316 102.067 17.8167L98 14.8417L93.9416 17.7917C93.7879 17.9066 93.6014 17.9694 93.4095 17.9708C93.2176 17.9722 93.0302 17.9122 92.8748 17.7996C92.7194 17.687 92.604 17.5276 92.5456 17.3448C92.4871 17.162 92.4887 16.9653 92.55 16.7834L94.1 12.0084L90.0416 9.06671C89.8759 8.95773 89.7504 8.79747 89.6842 8.61042C89.6181 8.42338 89.6151 8.21984 89.6755 8.03089C89.736 7.84195 89.8567 7.67799 90.0191 7.56408C90.1815 7.45016 90.3767 7.39255 90.575 7.40005H95.575L97.1666 2.65838Z" stroke="#90A3BF" stroke-width="1.5" stroke-linecap="round" stroke-linejoin="round"/>
</g>
<defs>
<clipPath id="clip0_1_1857">
<rect width="108" height="20" fill="white"/>
</clipPath>
</defs>
</svg>
